<svg xmlns="http://www.w3.org/2000/svg" xmlns:xlink="http://www.w3.org/1999/xlink" version="1.1" x="0px" y="0px" viewBox="0 0 96 120" style="enable-background:new 0 0 96 96;" xml:space="preserve"><path d="M87.625,11.025H8.375C5.411,11.025,3,13.436,3,16.4v50.459c0,2.964,2.411,5.375,5.375,5.375h23.587v4.33h-3.64  c-2.319,0-4.205,1.887-4.205,4.205v3.037c0,0.645,0.523,1.169,1.169,1.169h45.43c0.645,0,1.169-0.523,1.169-1.169V80.77  c0-2.319-1.887-4.205-4.205-4.205h-3.64v-4.33h23.587c2.964,0,5.375-2.411,5.375-5.375V16.4C93,13.436,90.589,11.025,87.625,11.025z   M8.375,13.362h79.249c1.675,0,3.038,1.363,3.038,3.038v46.783H53.255v-3.348c1.649-0.256,2.917-1.681,2.917-3.401  c0-0.947-0.384-1.805-1.004-2.429l4.542-6.812c0.262-0.393,0.262-0.904,0-1.297L48.973,29.789c-0.217-0.325-0.582-0.52-0.973-0.52  s-0.756,0.195-0.973,0.52L36.29,45.896c-0.262,0.393-0.262,0.904,0,1.297l4.542,6.812c-0.62,0.623-1.004,1.482-1.004,2.429  c0,1.72,1.268,3.146,2.917,3.401v3.348H5.338V16.4C5.338,14.725,6.7,13.362,8.375,13.362z M48,44.178  c1.304,0,2.366,1.061,2.366,2.366c0,1.304-1.061,2.366-2.366,2.366c-1.304,0-2.366-1.061-2.366-2.366  C45.634,45.24,46.696,44.178,48,44.178z M46.831,41.988c-2.03,0.521-3.534,2.366-3.534,4.556c0,2.593,2.11,4.703,4.703,4.703  c2.594,0,4.703-2.11,4.703-4.703c0-2.19-1.505-4.035-3.535-4.556v-7.69l8.164,12.246l-4.306,6.458  c-0.099-0.009-0.199-0.015-0.301-0.015h-9.453c-0.102,0-0.202,0.007-0.301,0.015l-4.306-6.458l8.164-12.246V41.988z M43.274,55.325  h9.453c0.611,0,1.109,0.497,1.109,1.109c0,0.611-0.497,1.109-1.109,1.109h-9.453c-0.611,0-1.109-0.497-1.109-1.109  C42.165,55.822,42.662,55.325,43.274,55.325z M45.082,59.88h5.835v3.303h-5.835V59.88z M69.546,80.77v1.868H26.454V80.77  c0-1.03,0.838-1.868,1.868-1.868h39.357C68.709,78.902,69.546,79.74,69.546,80.77z M61.7,76.564H34.3v-4.33H61.7V76.564z   M87.625,69.897H8.375c-1.675,0-3.038-1.363-3.038-3.038v-1.338h85.325v1.338C90.662,68.534,89.3,69.897,87.625,69.897z   M51.177,67.709c0,0.645-0.523,1.169-1.169,1.169h-4.017c-0.645,0-1.169-0.523-1.169-1.169c0-0.645,0.523-1.169,1.169-1.169h4.017  C50.654,66.54,51.177,67.063,51.177,67.709z M17.375,29.389c2.775,0,5.098-1.973,5.639-4.59h14.183  c-7.273,3.308-12.827,9.871-14.651,18.016c-2.925,0.271-5.223,2.738-5.223,5.733c0,3.175,2.583,5.759,5.759,5.759  c3.175,0,5.759-2.583,5.759-5.759c0-2.546-1.662-4.71-3.957-5.469C27.389,32.42,36.934,24.798,48,24.798  c11.066,0,20.611,7.622,23.116,18.28c-2.296,0.758-3.957,2.922-3.957,5.469c0,3.175,2.583,5.759,5.759,5.759  s5.759-2.583,5.759-5.759c0-2.995-2.298-5.462-5.224-5.733c-1.823-8.145-7.378-14.708-14.651-18.016h14.183  c0.542,2.617,2.864,4.59,5.639,4.59c3.175,0,5.759-2.583,5.759-5.759c0-3.175-2.583-5.759-5.759-5.759  c-2.775,0-5.098,1.973-5.639,4.59H23.015c-0.542-2.617-2.864-4.59-5.639-4.59c-3.175,0-5.759,2.583-5.759,5.759  C11.617,26.805,14.2,29.389,17.375,29.389z M26.504,48.547c0,1.886-1.535,3.421-3.421,3.421c-1.886,0-3.421-1.535-3.421-3.421  c0-1.886,1.535-3.421,3.421-3.421C24.969,45.126,26.504,46.661,26.504,48.547z M76.339,48.547c0,1.886-1.535,3.421-3.421,3.421  s-3.421-1.535-3.421-3.421c0-1.886,1.535-3.421,3.421-3.421S76.339,46.661,76.339,48.547z M78.625,20.209  c1.886,0,3.421,1.535,3.421,3.421c0,1.886-1.535,3.421-3.421,3.421s-3.421-1.535-3.421-3.421  C75.204,21.743,76.738,20.209,78.625,20.209z M17.375,20.209c1.886,0,3.421,1.535,3.421,3.421c0,1.886-1.535,3.421-3.421,3.421  s-3.421-1.535-3.421-3.421C13.954,21.743,15.489,20.209,17.375,20.209z"/><text x="0" y="111" fill="#000000" font-size="5px" font-weight="bold" font-family="'Helvetica Neue', Helvetica, Arial-Unicode, Arial, Sans-serif">Created by miftahul huda</text><text x="0" y="116" fill="#000000" font-size="5px" font-weight="bold" font-family="'Helvetica Neue', Helvetica, Arial-Unicode, Arial, Sans-serif">from the Noun Project</text></svg>