<svg xmlns="http://www.w3.org/2000/svg" xmlns:xlink="http://www.w3.org/1999/xlink" version="1.1" x="0px" y="0px" viewBox="0 0 64 80" style="enable-background:new 0 0 64 64;" xml:space="preserve"><g><path d="M61,53V20c0-2.757-2.243-5-5-5h-5.295l0.375-2H57c1.654,0,3-1.346,3-3s-1.346-3-3-3h-6.83l-3,16h-3.371l0.771-0.771   l-1.523-2.567c0.021-0.049,0.041-0.098,0.061-0.146L46,18.777v-7.554l-2.892-0.738c-0.02-0.049-0.041-0.098-0.061-0.146   l1.523-2.567L39.229,2.43l-2.567,1.523c-0.049-0.021-0.098-0.041-0.146-0.061L35.777,1h-7.554l-0.738,2.892   c-0.049,0.02-0.098,0.041-0.146,0.061L24.771,2.43L19.43,7.771l1.523,2.567c-0.021,0.049-0.041,0.098-0.061,0.146L18,11.223V15H8   c-2.757,0-5,2.243-5,5v33H1v5c0,2.757,2.243,5,5,5h52c2.757,0,5-2.243,5-5v-5H61z M51.83,9H57c0.551,0,1,0.449,1,1s-0.449,1-1,1   h-5.545L51.83,9z M56,17c1.654,0,3,1.346,3,3v33h-2V21c0-1.103-0.897-2-2-2h-5.045l0.375-2H56z M23,55h18v1c0,0.551-0.449,1-1,1H24   c-0.551,0-1-0.449-1-1V55z M9,53V21h11.159l-0.729,1.229L20.201,23h-4.334l1.703,13.62c0.312,2.497,2.445,4.38,4.961,4.38H45   c0.551,0,1,0.449,1,1s-0.449,1-1,1H20c-2.206,0-4,1.794-4,4s1.794,4,4,4s4-1.794,4-4c0-0.732-0.212-1.409-0.556-2h14.113   C37.212,45.591,37,46.268,37,47c0,2.206,1.794,4,4,4s4-1.794,4-4c0-0.732-0.212-1.409-0.556-2H45c1.654,0,3-1.346,3-3   c0-1.243-0.76-2.311-1.839-2.766L49.58,21H55v32H9z M43,47c0,1.103-0.897,2-2,2s-2-0.897-2-2s0.897-2,2-2S43,45.897,43,47z M22,47   c0,1.103-0.897,2-2,2s-2-0.897-2-2s0.897-2,2-2S22,45.897,22,47z M46.795,25L44.17,39H22.531c-1.51,0-2.79-1.13-2.977-2.628   L18.133,25h4.068l2.57,2.57l2.567-1.523c0.049,0.021,0.098,0.041,0.146,0.061L28.223,29h7.554l0.738-2.892   c0.049-0.02,0.098-0.041,0.146-0.061l2.567,1.523l2.57-2.57H46.795z M20,12.777l2.407-0.614l0.178-0.503   c0.115-0.327,0.248-0.644,0.396-0.954l0.23-0.482l-1.268-2.138l3.144-3.144l2.138,1.268l0.482-0.23   c0.31-0.148,0.627-0.28,0.954-0.396l0.503-0.178L29.777,3h4.446l0.614,2.407l0.503,0.178c0.327,0.115,0.644,0.248,0.954,0.396   l0.482,0.23l2.138-1.268l3.144,3.144l-1.268,2.138l0.23,0.482c0.148,0.31,0.28,0.627,0.396,0.954l0.178,0.503L44,12.777v4.446   l-2.406,0.614l-0.179,0.502c-0.116,0.327-0.248,0.645-0.396,0.955l-0.23,0.482l1.268,2.138l-3.144,3.144l-2.138-1.268l-0.482,0.23   c-0.31,0.148-0.627,0.28-0.954,0.396l-0.503,0.178L34.223,27h-4.446l-0.614-2.407l-0.503-0.178   c-0.327-0.115-0.644-0.248-0.954-0.396l-0.482-0.23l-2.138,1.268l-3.144-3.144l1.268-2.138l-0.23-0.482   c-0.148-0.31-0.28-0.627-0.396-0.955l-0.179-0.502L20,17.223V12.777z M5,20c0-1.654,1.346-3,3-3h10v1.777L18.874,19H9   c-1.103,0-2,0.897-2,2v32H5V20z M61,58c0,1.654-1.346,3-3,3H6c-1.654,0-3-1.346-3-3v-3h18v1c0,1.654,1.346,3,3,3h16   c1.654,0,3-1.346,3-3v-1h18V58z"/><rect x="7" y="57" width="2" height="2"/><rect x="11" y="57" width="2" height="2"/><rect x="15" y="57" width="2" height="2"/><path d="M32,23c4.411,0,8-3.589,8-8s-3.589-8-8-8s-8,3.589-8,8S27.589,23,32,23z M32,9c3.309,0,6,2.691,6,6s-2.691,6-6,6   s-6-2.691-6-6S28.691,9,32,9z"/><path d="M32,19c2.206,0,4-1.794,4-4s-1.794-4-4-4s-4,1.794-4,4S29.794,19,32,19z M32,13c1.103,0,2,0.897,2,2s-0.897,2-2,2   s-2-0.897-2-2S30.897,13,32,13z"/></g><text x="0" y="79" fill="#000000" font-size="5px" font-weight="bold" font-family="'Helvetica Neue', Helvetica, Arial-Unicode, Arial, Sans-serif">Created by Eucalyp</text><text x="0" y="84" fill="#000000" font-size="5px" font-weight="bold" font-family="'Helvetica Neue', Helvetica, Arial-Unicode, Arial, Sans-serif">from the Noun Project</text></svg>